<?xml version="1.0" encoding="utf-8"?>
<!DOCTYPE svg PUBLIC "-//W3C//DTD SVG 1.1//EN" "http://www.w3.org/Graphics/SVG/1.1/DTD/svg11.dtd">
<svg version="1.1" id="Layer_1" xmlns="http://www.w3.org/2000/svg" xmlns:xlink="http://www.w3.org/1999/xlink" x="0px" y="0px"
	 width="55px" height="55px" viewBox="0 0 55 55" style="enable-background:new 0 0 55 55;" xml:space="preserve">
<path d="M28.01,46c-4.588,0-8.784-1.677-12.027-4.45L8,42.641l3.084-7.611c-1.074-2.371-1.677-5.003-1.677-7.779
	c0-10.354,8.328-18.75,18.603-18.75c10.273,0,18.602,8.396,18.602,18.75C46.611,37.607,38.283,46,28.01,46z M38.167,27.196v-0.052
	c0-5.411-3.814-9.269-10.395-9.269h-7.105v18.749h7C34.298,36.626,38.167,32.607,38.167,27.196L38.167,27.196z M27.852,32.019
	h-2.079v-9.535h2.079c3.052,0,5.078,1.74,5.078,4.741v0.053C32.93,30.305,30.903,32.019,27.852,32.019z"/>
</svg>
