<?xml version="1.0" encoding="utf-8"?>
<!DOCTYPE svg PUBLIC "-//W3C//DTD SVG 1.1//EN" "http://www.w3.org/Graphics/SVG/1.1/DTD/svg11.dtd">
<svg version="1.1" id="Layer_1" xmlns="http://www.w3.org/2000/svg" xmlns:xlink="http://www.w3.org/1999/xlink" x="0px" y="0px"
	 width="100px" height="100px" viewBox="0 0 100 100" style="enable-background:new 0 0 100 100;" xml:space="preserve">
<path style="fill:#37A0FB;" d="M100,94c0,3.313-2.687,6-6,6H6c-3.313,0-6-2.687-6-6V6c0-3.313,2.687-6,6-6h88c3.313,0,6,2.687,6,6
	V94z"/>
<path style="fill:#FFFFFF;" d="M51.268,83.75c-8.259,0-15.811-3.018-21.649-8.011L15.25,77.703l5.551-13.701
	c-1.934-4.268-3.019-9.005-3.019-14.002c0-18.639,14.991-33.75,33.485-33.75C69.76,16.25,84.75,31.361,84.75,50
	C84.75,68.642,69.76,83.75,51.268,83.75z M69.551,49.903V49.81c0-9.739-6.867-16.684-18.71-16.684h-12.79v33.75h12.601
	C62.586,66.876,69.551,59.642,69.551,49.903L69.551,49.903z M50.982,58.584h-3.741V41.42h3.741c5.494,0,9.141,3.132,9.141,8.535
	v0.094C60.123,55.498,56.477,58.584,50.982,58.584z"/>
</svg>
